<svg width="120" height="120" viewBox="0 0 120 120" fill="none" xmlns="http://www.w3.org/2000/svg">
  <rect width="120" height="120" rx="60" fill="#4F46E5" opacity="0.1"/>
  <path d="M60 30C43.431 30 30 43.431 30 60C30 76.569 43.431 90 60 90C76.569 90 90 76.569 90 60C90 43.431 76.569 30 60 30ZM60 84C46.767 84 36 73.233 36 60C36 46.767 46.767 36 60 36C73.233 36 84 46.767 84 60C84 73.233 73.233 84 60 84Z" fill="#4F46E5"/>
  <path d="M60 48C53.373 48 48 53.373 48 60C48 66.627 53.373 72 60 72C66.627 72 72 66.627 72 60C72 53.373 66.627 48 60 48ZM60 66C56.686 66 54 63.314 54 60C54 56.686 56.686 54 60 54C63.314 54 66 56.686 66 60C66 63.314 63.314 66 60 66Z" fill="#4F46E5"/>
</svg>
